<?xml version="1.0" encoding="UTF-8" standalone="no"?>
<!-- Created with Inkscape (http://www.inkscape.org/) -->

<svg
   width="63.999996"
   height="63.999996"
   viewBox="0 0 16.933332 16.933332"
   version="1.1"
   id="svg5"
   xmlns="http://www.w3.org/2000/svg"
   xmlns:svg="http://www.w3.org/2000/svg">
  <defs
     id="defs2" />
  <g
     id="layer1">
    <g
       id="g1923"
       style="fill:#ffffff;fill-opacity:1">
      <path
         style="fill:#ffffff;fill-opacity:1;stroke:#ffffff;stroke-width:0.771001"
         id="rect238-8"
         width="1.2137005"
         height="12.346564"
         x="7.8609319"
         y="-14.639749"
         transform="matrix(2.3672868e-5,1,-0.99999999,1.3176614e-4,0,0)"
         d="m 8.3900985,-14.639749 0.1553672,0 a 0.52916667,0.52916667 45 0 1 0.5291667,0.529167 V -2.822351 A 0.52916667,0.52916667 135 0 1 8.5454657,-2.2931843 H 8.3900985 A 0.52916667,0.52916667 45 0 1 7.8609319,-2.822351 v -11.288231 a 0.52916667,0.52916667 135 0 1 0.5291666,-0.529167 z" />
      <path
         style="fill:#ffffff;fill-opacity:1;stroke:#ffffff;stroke-width:0.771001"
         id="rect238-8-3"
         width="1.2137005"
         height="12.346564"
         x="-9.072401"
         y="-14.640149"
         transform="matrix(-1,2.3672868e-5,-1.3176614e-4,-0.99999999,0,0)"
         d="m -8.5432344,-14.640149 h 0.1553672 a 0.52916667,0.52916667 45 0 1 0.5291667,0.529167 v 11.2882305 a 0.52916667,0.52916667 135 0 1 -0.5291667,0.5291667 H -8.5432344 A 0.52916667,0.52916667 45 0 1 -9.072401,-2.8227515 V -14.110982 a 0.52916667,0.52916667 135 0 1 0.5291666,-0.529167 z" />
    </g>
    <path
       style="fill:#212529;fill-opacity:1;stroke:#000000;stroke-width:0.231099"
       d="M 30.810409,56.616355 C 29.928054,56.38028 29.116054,55.720304 28.699877,54.900961 28.258957,54.032905 28.272615,54.359853 28.272615,44.672309 v -8.944924 h -8.91803 c -6.252336,0 -9.04365,-0.02642 -9.33829,-0.08839 -1.2894521,-0.271211 -2.314337,-1.237193 -2.6374723,-2.48589 -0.1567577,-0.605761 -0.1567577,-1.700443 0,-2.306204 C 7.6150812,29.933924 8.263962,29.124048 9.0990393,28.69988 9.9670952,28.25896 9.640147,28.272618 19.327691,28.272618 h 8.944924 v -8.91803 c 0,-6.252336 0.02642,-9.04365 0.08839,-9.33829 0.271211,-1.2894521 1.237193,-2.314337 2.48589,-2.6374723 0.605761,-0.1567577 1.700443,-0.1567577 2.306204,0 1.228864,0.3180028 2.214692,1.3643009 2.485043,2.6374723 0.0631,0.297137 0.08924,3.032969 0.08924,9.33829 v 8.91803 h 8.91803 c 6.252335,0 9.04365,0.02642 9.33829,0.08839 1.289452,0.271211 2.314337,1.237193 2.637472,2.48589 0.156758,0.605761 0.156758,1.700443 0,2.306204 -0.324453,1.253787 -1.401652,2.249538 -2.691483,2.487976 -0.31866,0.05891 -3.282085,0.08631 -9.334594,0.08631 h -8.867715 v 8.91803 c 0,6.252335 -0.02642,9.04365 -0.08839,9.33829 -0.271211,1.289452 -1.237193,2.314337 -2.48589,2.637472 -0.590755,0.152875 -1.762297,0.150463 -2.342693,-0.0048 z"
       id="path2720"
       transform="scale(0.26458333)" />
  </g>
</svg>
