<?xml version="1.0" encoding="UTF-8" standalone="no"?>
<!-- Created with Inkscape (http://www.inkscape.org/) -->

<svg
   width="31.999998"
   height="31.999998"
   viewBox="0 0 8.4666661 8.4666661"
   version="1.1"
   id="svg5"
   xmlns="http://www.w3.org/2000/svg"
   xmlns:svg="http://www.w3.org/2000/svg">
  <defs
     id="defs2" />
  <g
     id="layer1">
    <path
       id="rect118"
       d="M 1.3427749,0.79374999 H 7.1435556 A 0.47192797,0.47192797 45 0 1 7.6154836,1.265678 v 0.07515 A 0.5112553,0.5112553 135 0 1 7.1042283,1.8520834 H 1.3427749 A 0.49159163,0.49159163 45 0 1 0.85118324,1.3604918 v -0.07515 A 0.49159163,0.49159163 135 0 1 1.3427749,0.79374999 Z"
       style="fill:#ffffff;stroke-width:0.264583" />
    <path
       id="path353"
       d="M 1.3427749,0.79374999 H 7.1435556 A 0.47192797,0.47192797 45 0 1 7.6154836,1.265678 v 0.07515 A 0.5112553,0.5112553 135 0 1 7.1042283,1.8520834 H 1.3427749 A 0.49159163,0.49159163 45 0 1 0.85118324,1.3604918 v -0.07515 A 0.49159163,0.49159163 135 0 1 1.3427749,0.79374999 Z"
       style="fill:#ffffff;stroke-width:0.264583" />
    <path
       id="path359"
       d="m 1.3427749,3.7041667 h 5.8007807 a 0.47192797,0.47192797 45 0 1 0.471928,0.4719279 v 0.07515 A 0.5112553,0.5112553 135 0 1 7.1042283,4.7625 H 1.3427749 A 0.49159163,0.49159163 45 0 1 0.85118324,4.2709084 v -0.07515 A 0.49159163,0.49159163 135 0 1 1.3427749,3.7041667 Z"
       style="fill:#ffffff;stroke-width:0.264583" />
    <path
       id="path365"
       d="m 1.4002081,6.6145835 h 5.8007807 a 0.47192797,0.47192797 45 0 1 0.471928,0.471928 v 0.07515 A 0.5112553,0.5112553 135 0 1 7.1616615,7.6729169 H 1.4002081 A 0.49159163,0.49159163 45 0 1 0.90861642,7.1813253 v -0.07515 A 0.49159163,0.49159163 135 0 1 1.4002081,6.6145835 Z"
       style="fill:#ffffff;stroke-width:0.264583" />
  </g>
</svg>
