<?xml version="1.0" encoding="UTF-8" standalone="no"?>
<!-- Created with Inkscape (http://www.inkscape.org/) -->

<svg
   width="31.999998"
   height="31.999998"
   viewBox="0 0 8.4666661 8.4666661"
   version="1.1"
   id="svg5"
   inkscape:export-filename="bitmap.svg"
   inkscape:export-xdpi="96"
   inkscape:export-ydpi="96"
   sodipodi:docname="menu-white.svg"
   inkscape:version="1.2.2 (b0a8486, 2022-12-01)"
   xmlns:inkscape="http://www.inkscape.org/namespaces/inkscape"
   xmlns:sodipodi="http://sodipodi.sourceforge.net/DTD/sodipodi-0.dtd"
   xmlns="http://www.w3.org/2000/svg"
   xmlns:svg="http://www.w3.org/2000/svg">
  <sodipodi:namedview
     id="namedview7"
     pagecolor="#ffffff"
     bordercolor="#000000"
     borderopacity="0.25"
     inkscape:showpageshadow="2"
     inkscape:pageopacity="0.0"
     inkscape:pagecheckerboard="0"
     inkscape:deskcolor="#d1d1d1"
     inkscape:document-units="mm"
     showgrid="true"
     inkscape:zoom="7.3750004"
     inkscape:cx="-1.2881355"
     inkscape:cy="-4.813559"
     inkscape:window-width="1920"
     inkscape:window-height="1027"
     inkscape:window-x="3432"
     inkscape:window-y="25"
     inkscape:window-maximized="1"
     inkscape:current-layer="layer1">
    <inkscape:grid
       type="xygrid"
       id="grid351" />
  </sodipodi:namedview>
  <defs
     id="defs2">
    <inkscape:path-effect
       effect="fillet_chamfer"
       id="path-effect369"
       is_visible="true"
       lpeversion="1"
       nodesatellites_param="F,0,0,1,0,0.49159163,0,1 @ F,0,0,1,0,0.47192797,0,1 @ F,0,0,1,0,0.5112553,0,1 @ F,0,0,1,0,0.49159163,0,1"
       unit="px"
       method="auto"
       mode="F"
       radius="0"
       chamfer_steps="1"
       flexible="false"
       use_knot_distance="true"
       apply_no_radius="true"
       apply_with_radius="true"
       only_selected="false"
       hide_knots="false" />
    <inkscape:path-effect
       effect="fillet_chamfer"
       id="path-effect363"
       is_visible="true"
       lpeversion="1"
       nodesatellites_param="F,0,0,1,0,0.49159163,0,1 @ F,0,0,1,0,0.47192797,0,1 @ F,0,0,1,0,0.5112553,0,1 @ F,0,0,1,0,0.49159163,0,1"
       unit="px"
       method="auto"
       mode="F"
       radius="0"
       chamfer_steps="1"
       flexible="false"
       use_knot_distance="true"
       apply_no_radius="true"
       apply_with_radius="true"
       only_selected="false"
       hide_knots="false" />
    <inkscape:path-effect
       effect="fillet_chamfer"
       id="path-effect357"
       is_visible="true"
       lpeversion="1"
       nodesatellites_param="F,0,0,1,0,0.49159163,0,1 @ F,0,0,1,0,0.47192797,0,1 @ F,0,0,1,0,0.5112553,0,1 @ F,0,0,1,0,0.49159163,0,1"
       unit="px"
       method="auto"
       mode="F"
       radius="0"
       chamfer_steps="1"
       flexible="false"
       use_knot_distance="true"
       apply_no_radius="true"
       apply_with_radius="true"
       only_selected="false"
       hide_knots="false" />
    <inkscape:path-effect
       effect="fillet_chamfer"
       id="path-effect182"
       is_visible="true"
       lpeversion="1"
       nodesatellites_param="F,0,0,1,0,0.49159163,0,1 @ F,0,0,1,0,0.47192797,0,1 @ F,0,0,1,0,0.5112553,0,1 @ F,0,0,1,0,0.49159163,0,1"
       unit="px"
       method="auto"
       mode="F"
       radius="0"
       chamfer_steps="1"
       flexible="false"
       use_knot_distance="true"
       apply_no_radius="true"
       apply_with_radius="true"
       only_selected="false"
       hide_knots="false" />
  </defs>
  <g
     inkscape:label="Layer 1"
     inkscape:groupmode="layer"
     id="layer1">
    <path
       id="rect118"
       d="M 1.3427749,0.79374999 H 7.1435556 A 0.47192797,0.47192797 45 0 1 7.6154836,1.265678 v 0.07515 A 0.5112553,0.5112553 135 0 1 7.1042283,1.8520834 H 1.3427749 A 0.49159163,0.49159163 45 0 1 0.85118324,1.3604918 v -0.07515 A 0.49159163,0.49159163 135 0 1 1.3427749,0.79374999 Z"
       style="fill:#ffffff;stroke-width:0.264583" />
    <path
       id="path353"
       d="M 1.3427749,0.79374999 H 7.1435556 A 0.47192797,0.47192797 45 0 1 7.6154836,1.265678 v 0.07515 A 0.5112553,0.5112553 135 0 1 7.1042283,1.8520834 H 1.3427749 A 0.49159163,0.49159163 45 0 1 0.85118324,1.3604918 v -0.07515 A 0.49159163,0.49159163 135 0 1 1.3427749,0.79374999 Z"
       style="fill:#ffffff;stroke-width:0.264583" />
    <path
       id="path359"
       d="m 1.3427749,3.7041667 h 5.8007807 a 0.47192797,0.47192797 45 0 1 0.471928,0.4719279 v 0.07515 A 0.5112553,0.5112553 135 0 1 7.1042283,4.7625 H 1.3427749 A 0.49159163,0.49159163 45 0 1 0.85118324,4.2709084 v -0.07515 A 0.49159163,0.49159163 135 0 1 1.3427749,3.7041667 Z"
       style="fill:#ffffff;stroke-width:0.264583" />
    <path
       id="path365"
       d="m 1.4002081,6.6145835 h 5.8007807 a 0.47192797,0.47192797 45 0 1 0.471928,0.471928 v 0.07515 A 0.5112553,0.5112553 135 0 1 7.1616615,7.6729169 H 1.4002081 A 0.49159163,0.49159163 45 0 1 0.90861642,7.1813253 v -0.07515 A 0.49159163,0.49159163 135 0 1 1.4002081,6.6145835 Z"
       style="fill:#ffffff;stroke-width:0.264583" />
  </g>
</svg>
