<?xml version="1.0" encoding="UTF-8"?>
<!-- Created with Inkscape (http://www.inkscape.org/) -->
<svg width="64" height="64" version="1.1" viewBox="0 0 16.933 16.933" xmlns="http://www.w3.org/2000/svg">
 <g transform="translate(-7.806e-8 -156.77)">
  <text x="68.791664" y="95.25" fill="none" font-size="176.39px" stroke="#ffffff" stroke-width="3.9688" style="inline-size:63.5;white-space:pre" xml:space="preserve"/>
  <g transform="matrix(.066667 0 0 .065646 -.35273 156.78)" fill="#fff">
   <path d="m132.29-0.064453c-70.128-8.7e-7 -127 57.823-127 128.97 5.6e-6 71.152 56.872 128.97 127 128.97 70.128 0 127-57.823 127-128.97 0-71.152-56.872-128.97-127-128.97zm0 7.7695c65.861-5.4e-6 119.23 54.187 119.23 121.21 0 67.018-53.37 121.21-119.23 121.21-65.861 1e-5 -119.23-54.187-119.23-121.21-1e-6 -67.018 53.368-121.21 119.23-121.21z" color="#000000" style="-inkscape-stroke:none"/>
   <g stroke="#fff" stroke-width="7.9375" aria-label="✓">
    <g stroke="none">
     <path d="m126.13 159.13q11.886-27.13 25.451-51.806 13.694-24.805 28.164-45.734 17.053-24.546 26.872-35.398 6.3304-6.9763 11.886-11.498 3.2298-2.5838 10.206-3.8757 16.924-3.1006 23.642-3.1006 2.9714 0 2.9714 2.0671 0 1.9379-2.9714 4.6509-25.838 22.996-54.26 65.758-28.293 42.762-47.801 90.821-7.3639 17.958-10.335 22.092-2.8422 4.0049-18.087 4.0049-9.9477 0-12.532-1.9379-2.4546-1.9379-9.0434-12.273-11.369-17.182-24.417-31.006-6.8471-7.2347-6.8471-11.11 0-5.426 7.6223-10.594 7.6223-5.2968 12.532-5.2968 6.8471 0 16.407 7.7515 9.6893 7.6223 20.541 26.484z" color="#000000" style="-inkscape-stroke:none"/>
     <path d="m252.35 3.752c-5.0892 0-12.983 1.0822-24.357 3.166h-8e-3c-5.0088 0.92756-8.9732 2.2879-11.963 4.6797l-0.0117 0.01172-0.0137 0.0098c-3.9061 3.1794-7.9966 7.1455-12.318 11.908l-2e-3 2e-3 -2e-3 0.0039c-6.7775 7.4909-15.773 19.363-27.189 35.795l-4e-3 0.0078c-9.7303 14.074-19.188 29.432-28.375 46.072v4e-3l-2e-3 2e-3c-7.9443 14.451-15.377 29.639-22.457 45.332-5.9504-9.4405-11.726-16.585-17.582-21.197-6.724-5.4476-12.828-8.6211-18.883-8.6211-4.6979 0-9.383 2.2482-14.789 6.0039-5.5975 3.8028-9.334 8.3903-9.334 13.855 0 4.921 3.1256 8.7578 7.9336 13.838 8.529 9.0361 16.527 19.19 23.99 30.469 2.2068 3.4596 4.0882 6.2537 5.6699 8.4004 1.5923 2.161 2.7375 3.6228 4.2246 4.7969l0.0371 0.0312 0.0391 0.0293c1.8392 1.3794 3.7991 1.8297 6.2012 2.2012 2.4021 0.37146 5.2681 0.53125 8.7129 0.53125 5.2553 0 9.5279-0.32645 13.002-1.0957 3.47-0.76836 6.3959-1.8805 8.3125-4.5742 2.6624-3.708 5.8429-10.853 10.779-22.891l2e-3 -6e-3 4e-3 -8e-3c12.907-31.797 28.714-61.83 47.428-90.115l4e-3 -0.0078c18.821-28.316 36.739-49.987 53.59-64.984l0.0195-0.01563 0.0176-0.01758c2.3284-2.1259 4.2637-4.2616 4.2637-7.582 0-1.6399-0.93188-3.7558-2.4453-4.8086-1.5134-1.0528-3.0435-1.2266-4.4941-1.2266zm-3.1367 8.207c-17.446 15.636-35.535 37.612-54.43 66.041l-4e-3 0.0078c-19.008 28.729-35.066 59.239-48.168 91.518-4.8753 11.888-8.5832 19.462-9.8809 21.268l-6e-3 0.01-8e-3 0.01c0.0217-0.0306-1.0096 0.86006-3.5644 1.4258-2.5549 0.56572-6.3774 0.9082-11.285 0.9082-3.187 0-5.7249-0.16495-7.5-0.43945-1.7515-0.27085-2.7013-0.76584-2.6152-0.69531-0.17839-0.14995-1.309-1.3265-2.709-3.2266-1.4221-1.93-3.2379-4.6173-5.4043-8.0156l-0.0176-0.0273-0.0195-0.0293c-7.6941-11.63-15.972-22.145-24.839-31.54l-4e-3 -4e-3c-4.3215-4.5662-5.7617-8.1361-5.7617-8.3828 0-1.759 1.3334-4.2256 5.8809-7.3086l0.01953-0.0137 0.01758-0.0117c4.7536-3.3034 8.4221-4.5879 10.268-4.5879 3.0671 0 7.8948 1.9895 13.908 6.8652l0.0215 0.0195 0.0234 0.0176c5.7751 4.5431 12.459 13.011 19.555 25.344l3.9219 6.8144 3.1543-7.2012c7.8775-17.981 16.307-35.141 25.289-51.48l4e-3 -6e-3c9.0691-16.427 18.386-31.554 27.945-45.381l6e-3 -0.0078c11.317-16.289 20.232-28.011 26.545-34.988l4e-3 -0.0039c4.1099-4.5289 7.935-8.2179 11.43-11.064 1.3188-1.0525 4.1539-2.2744 8.4414-3.0684h-8e-3c9.1775-1.6814 15.457-2.4727 19.791-2.7656z" color="#000000" style="-inkscape-stroke:none"/>
    </g>
   </g>
  </g>
 </g>
</svg>
