<?xml version="1.0" encoding="UTF-8" standalone="no"?>
<!-- Created with Inkscape (http://www.inkscape.org/) -->

<svg
   width="63.999996"
   height="63.999996"
   viewBox="0 0 16.933332 16.933332"
   version="1.1"
   id="svg5"
   xmlns="http://www.w3.org/2000/svg"
   xmlns:svg="http://www.w3.org/2000/svg">
  <defs
     id="defs2" />
  <g
     id="layer1"
     transform="translate(-7.8059895e-8,-156.7733)">
    <text
       xml:space="preserve"
       style="font-size:176.389px;white-space:pre;inline-size:63.5;display:inline;fill:none;stroke:#ffffff;stroke-width:3.96875;stroke-dasharray:none"
       x="68.791664"
       y="95.25"
       id="text2541" />
    <g
       id="g8831"
       transform="matrix(0.06666666,0,0,0.06564599,-0.35273426,156.77753)">
      <path
         style="color:#000000;fill:#ffffff;-inkscape-stroke:none"
         d="M 132.29102,-0.06445312 C 62.163244,-0.06445399 5.2910146,57.758221 5.2910156,128.91016 c 5.6e-6,71.15193 56.8722334,128.97461 127.0000044,128.97461 70.12777,0 126.99999,-57.82268 127,-128.97461 0,-71.151942 -56.87223,-128.97461891 -127,-128.97461312 z m 0,7.76953122 c 65.86054,-5.4e-6 119.23047,54.1866569 119.23046,121.2050819 0,67.01841 -53.36993,121.20508 -119.23046,121.20507 C 66.430481,250.11524 13.062505,195.92857 13.0625,128.91016 13.062499,61.891738 66.430476,7.7050773 132.29102,7.7050781 Z"
         id="path5863" />
      <g
         aria-label="✓"
         id="text5818"
         style="font-size:264.583px;fill:#ffffff;stroke:#ffffff;stroke-width:7.9375">
        <g
           id="path5821">
          <path
             style="color:#000000;stroke:none;-inkscape-stroke:none"
             d="m 126.13199,159.13245 q 11.88557,-27.13009 25.45062,-51.80556 13.69423,-24.804657 28.16362,-45.733587 17.0532,-24.546275 26.87171,-35.398312 6.33035,-6.97631 11.88556,-11.497992 3.22978,-2.583819 10.20609,-3.875728 16.92401,-3.1005822 23.64193,-3.1005822 2.9714,0 2.9714,2.0670548 0,1.9378634 -2.9714,4.6508734 -25.83818,22.995984 -54.26018,65.758179 -28.29281,42.762194 -47.80064,90.821214 -7.36389,17.95754 -10.33528,22.09165 -2.8422,4.00492 -18.08673,4.00492 -9.9477,0 -12.53152,-1.93786 -2.45462,-1.93787 -9.04336,-12.27314 -11.368802,-17.18239 -24.417085,-31.00582 -6.847119,-7.23469 -6.847119,-11.11042 0,-5.42602 7.622265,-10.59366 7.622264,-5.29683 12.531519,-5.29683 6.847119,0 16.40725,7.75146 9.68932,7.62226 20.54135,26.48414 z"
             id="path5860" />
          <path
             style="color:#000000;stroke:none;-inkscape-stroke:none"
             d="m 252.35156,3.7519531 c -5.08918,0 -12.9832,1.0821889 -24.35742,3.1660156 h -0.004 -0.004 c -5.00885,0.9275641 -8.97321,2.2879486 -11.96289,4.6796873 l -0.0117,0.01172 -0.0137,0.0098 c -3.90607,3.179356 -7.99664,7.145489 -12.31836,11.908203 l -0.002,0.002 -0.002,0.0039 c -6.77752,7.49094 -15.77339,19.362715 -27.18945,35.794922 l -0.002,0.0039 -0.002,0.0039 c -9.73027,14.074139 -19.18794,29.431539 -28.375,46.072259 v 0.004 l -0.002,0.002 c -7.94427,14.451 -15.37686,29.63932 -22.45703,45.33203 -5.95039,-9.44049 -11.72647,-16.58485 -17.58203,-21.19726 -6.72395,-5.44762 -12.827659,-8.6211 -18.882816,-8.6211 -4.697873,0 -9.38305,2.24818 -14.789063,6.00391 -5.597531,3.80284 -9.333984,8.39029 -9.333984,13.85547 0,4.92097 3.125644,8.75779 7.933594,13.83789 8.528968,9.03613 16.52742,19.18973 23.990234,30.46875 2.206845,3.45963 4.088165,6.25372 5.669925,8.40039 1.59232,2.16101 2.73752,3.62285 4.22461,4.79688 l 0.0371,0.0312 0.0391,0.0293 c 1.83917,1.37938 3.79911,1.82972 6.20117,2.20117 2.40206,0.37146 5.26814,0.53125 8.71289,0.53125 5.25528,0 9.52791,-0.32645 13.00195,-1.0957 3.47002,-0.76836 6.39588,-1.8805 8.3125,-4.57422 2.66241,-3.70798 5.84292,-10.8528 10.7793,-22.89062 l 0.002,-0.006 0.004,-0.008 c 12.90691,-31.79715 28.71389,-61.82979 47.42773,-90.115235 l 0.004,-0.0078 C 220.22102,54.070752 238.13889,32.39974 254.99006,17.40219 l 0.0195,-0.01563 0.0176,-0.01758 c 2.32841,-2.125929 4.26368,-4.261647 4.26368,-7.5820316 0,-1.6398658 -0.93188,-3.7557739 -2.44532,-4.8085938 -1.51343,-1.0528199 -3.04353,-1.2265625 -4.49414,-1.2265625 z m -3.13672,8.2070309 C 231.76887,27.595463 213.68031,49.571379 194.78516,78 l -0.002,0.0039 -0.002,0.0039 c -19.00777,28.72864 -35.06556,59.23881 -48.16797,91.51758 -4.87531,11.88752 -8.58316,19.46208 -9.88086,21.26758 l -0.006,0.01 -0.008,0.01 c 0.0217,-0.0306 -1.00959,0.86006 -3.56445,1.42578 -2.55487,0.56572 -6.37743,0.9082 -11.28516,0.9082 -3.18704,0 -5.72489,-0.16495 -7.5,-0.43945 -1.75149,-0.27085 -2.70127,-0.76584 -2.61523,-0.69531 -0.17839,-0.14995 -1.30896,-1.32653 -2.70899,-3.22656 -1.42213,-1.93004 -3.23788,-4.61733 -5.40429,-8.01563 l -0.0176,-0.0273 -0.0195,-0.0293 C 95.909024,169.08372 87.631006,158.56794 78.763672,149.17383 l -0.002,-0.002 -0.002,-0.002 c -4.321534,-4.56615 -5.761719,-8.13614 -5.761719,-8.38281 0,-1.75896 1.333379,-4.22556 5.880859,-7.30859 l 0.01953,-0.0137 0.01758,-0.0117 c 4.753617,-3.30336 8.422101,-4.58789 10.267578,-4.58789 3.0671,0 7.894827,1.98953 13.90821,6.86524 l 0.0215,0.0195 0.0234,0.0176 c 5.77512,4.54309 12.45938,13.01143 19.55469,25.34375 l 3.92187,6.81445 3.1543,-7.20117 c 7.87751,-17.98126 16.30702,-35.14127 25.28906,-51.48047 l 0.004,-0.006 c 9.06908,-16.426586 18.3862,-31.553669 27.94531,-45.380858 l 0.006,-0.0078 C 194.32859,47.560531 203.2443,35.838596 209.55676,28.861101 l 0.004,-0.0039 c 4.10988,-4.52893 7.935,-8.217884 11.42968,-11.064453 1.31884,-1.052463 4.15386,-2.274368 8.44141,-3.06836 h -0.008 c 9.17754,-1.681381 15.4566,-2.472736 19.79101,-2.765625 z"
             id="path5857" />
        </g>
      </g>
    </g>
  </g>
</svg>
